<!DOCTYPE svg PUBLIC "-//W3C//DTD SVG 20010904//EN" "http://www.w3.org/TR/2001/REC-SVG-20010904/DTD/svg10.dtd">
<svg version="1.0" xmlns="http://www.w3.org/2000/svg" width="73px" height="89px" viewBox="0 0 730 890" preserveAspectRatio="xMidYMid meet">
<g id="layer101" fill="#4a55cf" stroke="none">
 <path d="M189 834 c-9 -11 -10 -20 -2 -32 7 -13 28 -18 82 -20 l71 -3 0 -37 0 -38 -72 -17 c-86 -20 -167 -70 -204 -127 -22 -33 -24 -43 -14 -55 20 -24 32 -18 84 34 69 70 130 95 222 89 105 -7 187 -62 241 -161 27 -49 25 -189 -4 -242 -27 -51 -86 -107 -141 -134 -34 -17 -43 -27 -40 -44 5 -33 45 -32 105 3 64 37 125 111 149 182 23 65 23 175 0 236 -36 98 -127 185 -223 213 -42 12 -43 13 -43 55 l0 43 71 3 c57 2 74 7 83 21 9 15 7 21 -8 33 -30 22 -338 20 -357 -2z"/>
 <path d="M260 567 c-53 -17 -123 -93 -139 -150 -23 -80 3 -181 61 -233 90 -82 246 -79 324 8 85 93 83 230 -5 318 -66 65 -151 85 -241 57z m167 -78 c125 -77 87 -277 -57 -296 -62 -9 -104 4 -142 43 -139 138 32 355 199 253z"/>
 </g>
<g id="layer102" fill="#cccccc" stroke="none">
 <path d="M189 834 c-9 -11 -10 -20 -2 -32 7 -13 28 -18 82 -20 l71 -3 0 -39 c0 -37 -2 -39 -37 -45 -105 -18 -195 -69 -240 -136 -21 -32 -23 -42 -13 -54 19 -23 32 -18 79 31 137 146 356 120 459 -55 24 -40 27 -56 27 -131 0 -68 -5 -93 -22 -125 -27 -51 -86 -107 -141 -134 -34 -17 -43 -27 -40 -44 5 -33 45 -32 105 3 64 37 125 111 149 182 23 65 23 175 0 236 -36 98 -127 185 -223 213 -42 12 -43 13 -43 55 l0 43 71 3 c57 2 74 7 83 21 9 15 7 21 -8 33 -30 22 -338 20 -357 -2z"/>
 </g>
</svg>