<svg xmlns="http://www.w3.org/2000/svg" viewBox="0 0 270.54 381"><defs><style>.cls-1{fill:#bc7667;}.cls-2{fill:#ab6b5e;}.cls-3{fill:#f4664e;}.cls-4{fill:#f27961;}.cls-5{opacity:0.1;}.cls-6{fill:#592020;}.cls-7{fill:none;stroke:#592020;stroke-miterlimit:10;stroke-width:3px;}.cls-8{fill:#e4a497;}.cls-9{fill:#b8a490;}.cls-10{fill:#9e4d43;}</style></defs><title>Asset 330</title><g id="Layer_2" data-name="Layer 2"><g id="Layer_1-2" data-name="Layer 1"><path class="cls-1" d="M68,351v28.5H84V351"/><path class="cls-1" d="M181,351v28.5h16V351"/><line class="cls-1" x1="68" y1="367.67" x2="84" y2="367.67"/><line class="cls-1" x1="181.5" y1="369.5" x2="197.5" y2="369.5"/><path class="cls-2" d="M68.5,360h16v-9h-16Z"/><path class="cls-2" d="M181.5,361h16v-9h-16Z"/><path class="cls-1" d="M163,31.5V22.08A20.58,20.58,0,0,0,142.42,1.5H127.3a20.58,20.58,0,0,0-20.58,20.58V31.5l9-1.33V23.68A14.18,14.18,0,0,1,129.9,9.5h10.42A14.18,14.18,0,0,1,154.5,23.68v6.49Z"/><path class="cls-2" d="M155.5,18.68A14.18,14.18,0,0,0,141.32,4.5H130.9a14.18,14.18,0,0,0-14.18,14.18v5A14.18,14.18,0,0,1,130.9,9.5h10.42A14.18,14.18,0,0,1,155.5,23.68Z"/><path class="cls-3" d="M28.43,330.5c-26,0-25.93-22.6-25.93-22.6v-111c0-47.26,40.5-32.88,40.5-32.88L63.5,186v83Z"/><path class="cls-4" d="M53.21,175.06a15.86,15.86,0,0,0-2-.3A54.33,54.33,0,0,0,30,177c-4.32,1.34-8.57,3.29-11.73,6.51-2.78,2.83-4.56,6.47-6.18,10.09a69.6,69.6,0,0,0-4.35,12c-1.21,5-1.54,10.17-2.86,15.14a72.35,72.35,0,0,1-3.39,9.34V195.94c0-47.26,40.5-32.88,40.5-32.88Z"/><path class="cls-5" d="M36.7,315.75,29.43,328.5C3.61,328.5,3.5,306.28,3.5,305.9V233.16c3.16,6,4.78,13.15,5.49,20,1.26,12,.57,24.4,4.73,35.71S26.46,309,36.7,315.75Z"/><path class="cls-3" d="M242.57,330.5c26,0,25.93-22.6,25.93-22.6v-111c0-47.26-40.5-32.88-40.5-32.88L207.5,186v83Z"/><path class="cls-5" d="M241.57,329.5c26,0,25.93-22.6,25.93-22.6v-111c0-47.26-40.5-32.88-40.5-32.88l-4,5.8s36.52-13,36.52,29.64v100s.1,20.38-23.38,20.38Z"/><path class="cls-3" d="M136.5,352h68A124.71,124.71,0,0,0,228,350.12a23.08,23.08,0,0,0,18.55-22.72V247c0-33-42-29-42-29H69.5s-42-4-42,29v80.41A23.08,23.08,0,0,0,46,350.12,124.71,124.71,0,0,0,69.5,352h68"/><path class="cls-3" d="M228.87,222c-1.87.09,0-158.27,0-158.27V62.19c0-17-14.07-30.69-31.42-30.69H73.55c-17.35,0-31.42,13.74-31.42,30.69v1.54S44,221.09,42.13,221"/><path class="cls-4" d="M44,181.75c0,21-.24,36.28-.83,36.25h.55C43.9,210.38,44,197.19,44,181.75Z"/><path class="cls-4" d="M198.45,32.5H74.55c-17.35,0-31.42,13.74-31.42,30.69v1.54s0,1.36,0,3.82C44,52.37,57.76,39.5,74.55,39.5h123.9c16.79,0,30.51,12.87,31.37,29.06,0-2.46,0-3.82,0-3.82V63.19C229.87,46.24,215.8,32.5,198.45,32.5Z"/><path class="cls-4" d="M229.32,218h.55c-.59,0-.81-15.29-.83-36.25C229,197.19,229.1,210.38,229.32,218Z"/><path class="cls-6" d="M27.43,331c-8.73,0-15.6-2.45-20.41-7.29-7-7-7-16.42-7-16.82v-111c0-15.23,4.14-25.88,12.31-31.64,12.46-8.79,29.47-2.9,30.19-2.65l-1,2.83c-.16-.06-16.3-5.62-27.47,2.28-7.32,5.17-11,15-11,29.18v111a23.74,23.74,0,0,0,3.06,10.66c4,6.93,11.2,10.44,21.37,10.44Z"/><path class="cls-6" d="M245.07,331v-3c7.84,0,13.76-2.12,17.59-6.31,5.55-6.07,4.85-14.58,4.85-14.66V195.94c0-14.19-3.71-24-11-29.18-11.17-7.9-27.31-2.34-27.47-2.28l-1-2.83c.72-.25,17.74-6.15,30.19,2.65,8.17,5.77,12.31,16.41,12.31,31.64v110.9c.08,1,.6,10-5.6,16.86C260.48,328.54,253.81,331,245.07,331Z"/><path class="cls-6" d="M42.73,222.92l-.68,0,.15-3a1.41,1.41,0,0,0-1.41.91c1.19-4.4.56-95.88-.16-156.3v-1.6A33,33,0,0,1,73.55,30h123.9a33,33,0,0,1,32.92,32.92V64.5c-.72,60.44-1.36,151.92-.16,156.32a1.41,1.41,0,0,0-1.41-.91l.15,3-1.15-.43c-.79-.76-1.6-1.54-1.12-80.19.23-38.56.69-77.41.7-77.8V62.92A30,30,0,0,0,197.45,33H73.55A30,30,0,0,0,43.63,62.92V64.5c0,.37.46,39.22.7,77.78.47,78.65-.34,79.43-1.12,80.19Z"/><path class="cls-7" d="M76.2,353.61"/><path class="cls-7" d="M51.2,351.18"/><path class="cls-7" d="M189.2,353.61"/><path class="cls-7" d="M164.2,351.18"/><path class="cls-1" d="M97,124V95.5H81V124Z"/><path class="cls-1" d="M97,139.5V168H81V139.5Z"/><path class="cls-2" d="M81.5,148h16v-9h-16Z"/><path class="cls-2" d="M81.5,124h16v-5h-16Z"/><path class="cls-1" d="M184,124V95.5H168V124Z"/><path class="cls-1" d="M184,139.5V168H168V139.5Z"/><polygon class="cls-6" points="85.5 381 66.5 381 66.5 351 69.5 351 69.5 378 82.5 378 82.5 351 85.5 351 85.5 381"/><polygon class="cls-6" points="198.5 381 179.5 381 179.5 351 182.5 351 182.5 378 195.5 378 195.5 351 198.5 351 198.5 381"/><path class="cls-6" d="M165.5,31.5h-3V22.08A19.1,19.1,0,0,0,143.42,3H128.3a19.1,19.1,0,0,0-19.08,19.08V31.5h-3V22.08A22.1,22.1,0,0,1,128.3,0h15.13A22.1,22.1,0,0,1,165.5,22.08Z"/><path class="cls-6" d="M157,30.17h-3V23.68A12.69,12.69,0,0,0,141.32,11H130.9a12.69,12.69,0,0,0-12.68,12.68v6.49h-3V23.68A15.69,15.69,0,0,1,130.9,8h10.42A15.69,15.69,0,0,1,157,23.68Z"/><rect class="cls-6" x="195" y="31.28" width="3" height="1.5"/><path class="cls-6" d="M184.35,87.27h-3v-3h3Zm-7,0h-3v-3h3Zm-7,0h-3v-3h3Zm-7,0h-3v-3h3Zm-7,0h-3v-3h3Zm-7,0h-3v-3h3Zm-7,0h-3v-3h3Zm46.64-.46-.8-2.89a9.59,9.59,0,0,0,2.39-1l1.55,2.57A12.61,12.61,0,0,1,188.74,86.81Zm6.54-4.35-2.35-1.86a9.67,9.67,0,0,0,1.33-2.24L197,79.52A12.68,12.68,0,0,1,195.28,82.45ZM198,75.08,195,75c0-.12,0-.24,0-.36V72h3v2.6Q198,74.85,198,75.08Zm0-7.1h-3V65h3Zm0-7h-3v-3h3Zm0-7h-3v-3h3Zm0-7h-3v-3h3Zm0-7h-3v-3h3Z"/><rect class="cls-6" x="133.55" y="84.27" width="2.52" height="3"/><path class="cls-6" d="M130.55,87.27h-3v-3h3Zm-7,0h-3v-3h3Zm-7,0h-3v-3h3Zm-7,0h-3v-3h3Zm-7,0h-3v-3h3Zm-7,0h-3v-3h3Zm-7,0h-3v-3h3Zm-7.4-.46a12.6,12.6,0,0,1-3.14-1.35l1.55-2.57a9.63,9.63,0,0,0,2.39,1Zm-6.54-4.35a12.64,12.64,0,0,1-1.74-2.94l2.76-1.17A9.69,9.69,0,0,0,76.7,80.6Zm-2.72-7.37c0-.16,0-.33,0-.49V72h3V74.6q0,.19,0,.38Zm3-7.1h-3V65h3Zm0-7h-3v-3h3Zm0-7h-3v-3h3Zm0-7h-3v-3h3Zm0-7h-3v-3h3Z"/><rect class="cls-6" x="71.62" y="31.28" width="3" height="1.5"/><path class="cls-5" d="M116.5,52l2.95.62a85.38,85.38,0,0,0,32.22.57L158.5,52l-12.75,6.65a21.68,21.68,0,0,1-20.41-.19L113.5,52"/><path class="cls-5" d="M116.5,297l2.95.62a85.38,85.38,0,0,0,32.22.57L158.5,297l-12.75,6.65a21.68,21.68,0,0,1-20.41-.19L113.5,297"/><path class="cls-2" d="M168.5,148h16v-9h-16Z"/><path class="cls-7" d="M97.5,101"/><polyline class="cls-5" points="97 95.5 97 100 168 100 168 95.5"/><polyline class="cls-5" points="53 284.5 53 289 217.5 289 217.5 284.5"/><rect class="cls-6" x="74.75" y="123.25" width="28.5" height="3"/><rect class="cls-6" x="95.5" y="95.5" width="3" height="28.5"/><rect class="cls-6" x="79.5" y="95.5" width="3" height="28.5"/><rect class="cls-6" x="74.75" y="137.25" width="28.5" height="3"/><polygon class="cls-6" points="98.5 169.5 79.5 169.5 79.5 139.5 82.5 139.5 82.5 166.5 95.5 166.5 95.5 139.5 98.5 139.5 98.5 169.5"/><path class="cls-6" d="M191.25,97H75.87A14.27,14.27,0,0,1,61.62,82.75V33.28h3V82.75A11.26,11.26,0,0,0,75.87,94H191.25A11.26,11.26,0,0,0,202.5,82.75V33.28h3V82.75A14.27,14.27,0,0,1,191.25,97Z"/><path class="cls-2" d="M168.5,124h16v-5h-16Z"/><rect class="cls-6" x="161.75" y="123.25" width="28.5" height="3"/><rect class="cls-6" x="182.5" y="95.5" width="3" height="28.5"/><rect class="cls-6" x="166.5" y="95.5" width="3" height="28.5"/><rect class="cls-6" x="161.75" y="137.25" width="28.5" height="3"/><polygon class="cls-6" points="185.5 169.5 166.5 169.5 166.5 139.5 169.5 139.5 169.5 166.5 182.5 166.5 182.5 139.5 185.5 139.5 185.5 169.5"/><path class="cls-6" d="M186.91,330H84.09a32,32,0,0,1-32-32V270A9.87,9.87,0,0,1,62,260.17H209a9.87,9.87,0,0,1,9.85,9.85v28A32,32,0,0,1,186.91,330ZM135,327h51.91a29,29,0,0,0,29-29V270a6.86,6.86,0,0,0-6.85-6.85H62A6.86,6.86,0,0,0,55.14,270v28a29,29,0,0,0,29,29Z"/><rect class="cls-6" x="53.64" y="282.92" width="163.72" height="3"/><path class="cls-5" d="M80.5,177a22.67,22.67,0,0,0,1.2,6.76c1.68,4.7,7.4,7.53,11.51,4.7,2.88-2,7.36-8.28,5.29-13.45"/><path class="cls-5" d="M167.5,177a22.67,22.67,0,0,0,1.2,6.76c1.68,4.7,7.4,7.53,11.51,4.7,2.88-2,7.36-8.28,5.29-13.45"/><path class="cls-1" d="M82.57,178l4.5,6.75a3.84,3.84,0,0,0,6.39,0L98,178a3.21,3.21,0,0,0-2.67-5h-10A3.21,3.21,0,0,0,82.57,178Z"/><path class="cls-1" d="M169.57,178l4.5,6.75a3.84,3.84,0,0,0,6.39,0L185,178a3.21,3.21,0,0,0-2.67-5h-10A3.21,3.21,0,0,0,169.57,178Z"/><path class="cls-8" d="M89.06,184.74,84.56,178a3.21,3.21,0,0,1,2.67-5h-2a3.21,3.21,0,0,0-2.67,5l4.5,6.75a3.83,3.83,0,0,0,4.2,1.57A3.79,3.79,0,0,1,89.06,184.74Z"/><path class="cls-8" d="M176.06,184.74l-4.5-6.75a3.21,3.21,0,0,1,2.67-5h-2a3.21,3.21,0,0,0-2.67,5l4.5,6.75a3.83,3.83,0,0,0,4.2,1.57A3.79,3.79,0,0,1,176.06,184.74Z"/><path class="cls-6" d="M89.26,188.45a5.33,5.33,0,0,1-4.45-2.38l-4.5-6.75A4.71,4.71,0,0,1,84.24,172h10a4.71,4.71,0,0,1,3.92,7.33l-4.5,6.75A5.33,5.33,0,0,1,89.26,188.45Zm-6.45-10.79,4.5,6.75a2.34,2.34,0,0,0,3.9,0l4.5-6.75A1.71,1.71,0,0,0,94.28,175h-10a1.71,1.71,0,0,0-1.42,2.66Z"/><path class="cls-6" d="M176.26,188.45a5.33,5.33,0,0,1-4.45-2.38l-4.5-6.75a4.71,4.71,0,0,1,3.92-7.33h10a4.71,4.71,0,0,1,3.92,7.33l-4.5,6.75A5.33,5.33,0,0,1,176.26,188.45Zm-6.45-10.79,4.5,6.75a2.34,2.34,0,0,0,3.9,0l4.5-6.75a1.71,1.71,0,0,0-1.42-2.66h-10a1.71,1.71,0,0,0-1.42,2.66Z"/><path class="cls-6" d="M18.1,235h-3v-5h3Zm0-6h-3v-5h3Zm0-6h-3v-5h3Zm0-6h-3v-5h3Zm0-6h-3v-5h3Zm0-6h-3v-5h3Zm0-6h-3v-5h3Zm0-6h-3v-5h3Zm0-6h-3v-5h3Zm0-6h-3v-5h3Zm0-6h-3v-5h3Zm0-6h-3v-5h3Z"/><path class="cls-6" d="M25.1,206.44h-3v-2.91h3Zm0-3.91h-3v-5h3Zm0-6h-3v-5h3Zm0-6h-3v-5h3Zm0-6h-3v-5h3Zm0-6h-3v-5h3Zm0-6h-3v-5h3Zm0-6h-3v-5h3Z"/><path class="cls-6" d="M253.1,236h-3v-5h3Zm0-6h-3v-5h3Zm0-6h-3v-5h3Zm0-6h-3v-5h3Zm0-6h-3v-5h3Zm0-6h-3v-5h3Zm0-6h-3v-5h3Zm0-6h-3v-5h3Zm0-6h-3v-5h3Zm0-6h-3v-5h3Zm0-6h-3v-5h3Zm0-6h-3v-5h3Z"/><path class="cls-6" d="M246.1,207.44h-3v-2.91h3Zm0-3.91h-3v-5h3Zm0-6h-3v-5h3Zm0-6h-3v-5h3Zm0-6h-3v-5h3Zm0-6h-3v-5h3Zm0-6h-3v-5h3Zm0-6h-3v-5h3Z"/><path class="cls-9" d="M112.5,171h42v30h-42Z"/><path class="cls-6" d="M156.5,203h-45V170h45Zm-42-3h39V173h-39Z"/><path class="cls-5" d="M113.5,173v5h42v-5Z"/><g class="cls-5"><path d="M27.5,315.53a41,41,0,0,0,29.66-2.46,30.6,30.6,0,0,0,12.72,10.5c7.7,3.45,16.39,3.77,24.82,4l16.14.5c24.45.76,49,1.53,73.36-.28,9.65-.71,20.33-2.39,26.34-10,6.66-8.4,4.88-20.51,7.75-30.84,4.23-15.23,18.19-25.57,25.93-39.35a574.8,574.8,0,0,0,.81,61.15c.46,7,1,14-.33,20.86s-5,13.57-11.15,16.93c-4.26,2.34-9.26,2.85-14.11,3.24-34.75,2.81-69.67,2.06-104.52,1.31L62.59,350c-10.75-.23-22.5-.84-30.51-8a23.45,23.45,0,0,1-4.79-27.85"/></g><rect class="cls-10" x="83.5" y="98.5" width="1" height="1.5"/><path class="cls-10" d="M84.5,120h-1v-3h1Zm0-4h-1v-3h1Zm0-4h-1v-3h1Zm0-4h-1v-3h1Zm0-4h-1v-3h1Z"/><rect class="cls-10" x="83.5" y="121" width="1" height="1.5"/><rect class="cls-10" x="93.5" y="98" width="1" height="1.5"/><path class="cls-10" d="M94.5,119.5h-1v-3h1Zm0-4h-1v-3h1Zm0-4h-1v-3h1Zm0-4h-1v-3h1Zm0-4h-1v-3h1Z"/><rect class="cls-10" x="93.5" y="120.5" width="1" height="1.5"/><rect class="cls-10" x="83.5" y="141.5" width="1" height="1.5"/><path class="cls-10" d="M84.5,163h-1v-3h1Zm0-4h-1v-3h1Zm0-4h-1v-3h1Zm0-4h-1v-3h1Zm0-4h-1v-3h1Z"/><rect class="cls-10" x="83.5" y="164" width="1" height="1.5"/><rect class="cls-10" x="93.5" y="141" width="1" height="1.5"/><path class="cls-10" d="M94.5,162.5h-1v-3h1Zm0-4h-1v-3h1Zm0-4h-1v-3h1Zm0-4h-1v-3h1Zm0-4h-1v-3h1Z"/><rect class="cls-10" x="93.5" y="163.5" width="1" height="1.5"/><rect class="cls-10" x="70.5" y="353.5" width="1" height="1.5"/><path class="cls-10" d="M71.5,375h-1v-3h1Zm0-4h-1v-3h1Zm0-4h-1v-3h1Zm0-4h-1v-3h1Zm0-4h-1v-3h1Z"/><rect class="cls-10" x="70.5" y="376" width="1" height="1.5"/><rect class="cls-10" x="80.5" y="353" width="1" height="1.5"/><path class="cls-10" d="M81.5,374.5h-1v-3h1Zm0-4h-1v-3h1Zm0-4h-1v-3h1Zm0-4h-1v-3h1Zm0-4h-1v-3h1Z"/><rect class="cls-10" x="80.5" y="375.5" width="1" height="1.5"/><rect class="cls-10" x="183.5" y="353.5" width="1" height="1.5"/><path class="cls-10" d="M184.5,375h-1v-3h1Zm0-4h-1v-3h1Zm0-4h-1v-3h1Zm0-4h-1v-3h1Zm0-4h-1v-3h1Z"/><rect class="cls-10" x="183.5" y="376" width="1" height="1.5"/><rect class="cls-10" x="193.5" y="353" width="1" height="1.5"/><path class="cls-10" d="M194.5,374.5h-1v-3h1Zm0-4h-1v-3h1Zm0-4h-1v-3h1Zm0-4h-1v-3h1Zm0-4h-1v-3h1Z"/><rect class="cls-10" x="193.5" y="375.5" width="1" height="1.5"/><rect class="cls-10" x="202" y="279.5" width="1.5" height="1"/><path class="cls-10" d="M201,280.5h-3v-1h3Zm-4,0h-3v-1h3Zm-4,0h-3v-1h3Zm-4,0h-3v-1h3Zm-4,0h-3v-1h3Zm-4,0h-3v-1h3Zm-4,0h-3v-1h3Zm-4,0h-3v-1h3Zm-4,0h-3v-1h3Zm-4,0h-3v-1h3Zm-4,0h-3v-1h3Zm-4,0h-3v-1h3Zm-4,0h-3v-1h3Zm-4,0h-3v-1h3Zm-4,0h-3v-1h3Zm-4,0h-3v-1h3Zm-4,0h-3v-1h3Zm-4,0h-3v-1h3Zm-4,0h-3v-1h3Zm-4,0h-3v-1h3Zm-4,0h-3v-1h3Zm-4,0h-3v-1h3Zm-4,0h-3v-1h3Zm-4,0h-3v-1h3Zm-4,0h-3v-1h3Zm-4,0h-3v-1h3Zm-4,0h-3v-1h3Zm-4,0h-3v-1h3Zm-4,0h-3v-1h3Zm-4,0h-3v-1h3Zm-4,0h-3v-1h3Zm-4,0h-3v-1h3Zm-4,0h-3v-1h3Zm-4,0h-3v-1h3Z"/><rect class="cls-10" x="63" y="279.5" width="1.5" height="1"/><rect class="cls-10" x="191.5" y="323.5" width="1.5" height="1"/><path class="cls-10" d="M190.51,324.5h-3v-1h3Zm-4,0h-3v-1h3Zm-4,0h-3v-1h3Zm-4,0h-3v-1h3Zm-4,0h-3v-1h3Zm-4,0h-3v-1h3Zm-4,0h-3v-1h3Zm-4,0h-3v-1h3Zm-4,0h-3v-1h3Zm-4,0h-3v-1h3Zm-4,0h-3v-1h3Zm-4,0h-3v-1h3Zm-4,0h-3v-1h3Zm-4,0h-3v-1h3Zm-4,0h-3v-1h3Zm-4,0h-3v-1h3Zm-4,0h-3v-1h3Zm-4,0h-3v-1h3Zm-4,0h-3v-1h3Zm-4,0h-3v-1h3Zm-4,0h-3v-1h3Zm-4,0h-3v-1h3Zm-4,0h-3v-1h3Zm-4,0h-3v-1h3Zm-4,0h-3v-1h3Zm-4,0H88v-1h3Zm-4,0H84v-1h3Zm-4,0H80v-1h3Z"/><rect class="cls-10" x="77.5" y="323.5" width="1.5" height="1"/><rect class="cls-10" x="170.5" y="98.5" width="1" height="1.5"/><path class="cls-10" d="M171.5,120h-1v-3h1Zm0-4h-1v-3h1Zm0-4h-1v-3h1Zm0-4h-1v-3h1Zm0-4h-1v-3h1Z"/><rect class="cls-10" x="170.5" y="121" width="1" height="1.5"/><rect class="cls-10" x="180.5" y="98" width="1" height="1.5"/><path class="cls-10" d="M181.5,119.5h-1v-3h1Zm0-4h-1v-3h1Zm0-4h-1v-3h1Zm0-4h-1v-3h1Zm0-4h-1v-3h1Z"/><rect class="cls-10" x="180.5" y="120.5" width="1" height="1.5"/><rect class="cls-10" x="170.5" y="141.5" width="1" height="1.5"/><path class="cls-10" d="M171.5,163h-1v-3h1Zm0-4h-1v-3h1Zm0-4h-1v-3h1Zm0-4h-1v-3h1Zm0-4h-1v-3h1Z"/><rect class="cls-10" x="170.5" y="164" width="1" height="1.5"/><rect class="cls-10" x="180.5" y="141" width="1" height="1.5"/><path class="cls-10" d="M181.5,162.5h-1v-3h1Zm0-4h-1v-3h1Zm0-4h-1v-3h1Zm0-4h-1v-3h1Zm0-4h-1v-3h1Z"/><rect class="cls-10" x="180.5" y="163.5" width="1" height="1.5"/><path class="cls-4" d="M203.5,217H68.5s-42-4-42,29v.82c6.36-24.11,41-20.82,41-20.82h135s42-4,42,29v78.1a23.28,23.28,0,0,0,1-6.7V246C245.5,213,203.5,217,203.5,217Z"/><path class="cls-6" d="M136,353H68a127.5,127.5,0,0,1-23.74-1.9A24.59,24.59,0,0,1,24.5,326.91V246.5c0-8.81,2.89-15.9,8.58-21.08,12.31-11.2,33.34-9.57,35-9.42H136v3H67.86c-.21,0-21.21-1.87-32.77,8.65-5,4.59-7.59,10.93-7.59,18.85v80.41a21.58,21.58,0,0,0,17.33,21.24A124.55,124.55,0,0,0,68,350h68Z"/><path class="cls-6" d="M203,353H135v-3h68a124.55,124.55,0,0,0,23.17-1.85,21.58,21.58,0,0,0,17.33-21.24V246.5c0-7.92-2.55-14.27-7.59-18.85-11.56-10.52-32.55-8.67-32.77-8.65H135v-3h67.93c1.65-.15,22.67-1.78,35,9.42,5.7,5.18,8.58,12.27,8.58,21.08v80.41a24.59,24.59,0,0,1-19.76,24.19A127.5,127.5,0,0,1,203,353Z"/><path class="cls-5" d="M228.87,219l-186.74-.61c.06,0,.12-.12.18-.33a37.76,37.76,0,0,1,11-4.82,98.08,98.08,0,0,1,20.2-2.85c37.81-2.12,76.1,5.18,113.62,1.61,7.1-.68,14.14-1.75,21.32-1.95a87.16,87.16,0,0,1,19.75,1.71C228.35,216.28,228.56,219,228.87,219Z"/><rect class="cls-6" x="68" y="366.17" width="16" height="3"/><rect class="cls-6" x="181.5" y="368" width="16" height="3"/></g></g></svg>