<?xml version="1.0" encoding="iso-8859-1"?>
<!DOCTYPE svg PUBLIC "-//W3C//DTD SVG 1.1//EN" "http://www.w3.org/Graphics/SVG/1.1/DTD/svg11.dtd">
<svg version="1.1" id="Capa_1" xmlns="http://www.w3.org/2000/svg" xmlns:xlink="http://www.w3.org/1999/xlink" x="0px" y="0px"
	 viewBox="0 0 384.747 384.747" style="enable-background:new 0 0 384.747 384.747;" xml:space="preserve" fill="white">
<g>
	<path d="M275.684,169.341c-4.237,0-8.222,1.65-11.219,4.646l-31.752,31.753l-26.459,0.002l6.435-6.435
		c1.563-1.563,1.563-4.095,0-5.657c-1.563-1.561-4.096-1.561-5.656,0l-12.093,12.093l-51.544,0.004
		c-1.062,0-2.078,0.421-2.828,1.171l-9.197,9.197c-0.915,0.915-1.331,2.216-1.116,3.492c0.214,1.276,1.033,2.37,2.196,2.935
		l56.174,27.288l-8.19,8.19l-35.617-0.006c-0.001,0-0.001,0-0.001,0c-1.061,0-2.078,0.421-2.828,1.171l-4.68,4.679
		c-0.915,0.915-1.331,2.216-1.116,3.492c0.214,1.276,1.033,2.37,2.196,2.935l23.136,11.238c-0.639,1.885-1.12,3.825-1.383,5.806
		c-0.455,3.412,0.583,6.853,2.848,9.439c2.271,2.594,5.539,4.082,8.967,4.082c0.001,0,0.001,0,0.002,0
		c0.53,0,1.067-0.036,1.599-0.106c1.956-0.261,3.872-0.733,5.735-1.359l10.888,22.68c0.535,1.114,1.554,1.918,2.761,2.179
		c0.281,0.061,0.564,0.09,0.846,0.09c0.931,0,1.842-0.325,2.569-0.934l5.092-4.266c0.907-0.76,1.431-1.883,1.431-3.066
		l-0.006-35.617l7.635-7.635l25.614,53.379c0.535,1.114,1.555,1.919,2.764,2.18c0.279,0.06,0.562,0.09,0.843,0.09
		c0.932,0,1.845-0.326,2.572-0.937l9.998-8.397c0.905-0.76,1.428-1.881,1.428-3.063l0.004-51.003l12.362-12.363
		c1.563-1.563,1.563-4.095,0-5.657c-1.563-1.562-4.096-1.562-5.656,0l-6.705,6.705l0.002-24.16l33.171-33.171
		c2.997-2.997,4.648-6.981,4.648-11.219c0-4.238-1.651-8.222-4.648-11.219C283.907,170.991,279.923,169.341,275.684,169.341z
		 M141,217.8l4.054-4.054l79.659-0.006l-30.102,30.102L141,217.8z M147.895,266.014l24.541,0.004l-3.478,3.478
		c-1.476,1.476-2.773,3.112-3.917,4.846L147.895,266.014z M194.878,313.371l-8.391-17.48c1.758-1.153,3.416-2.464,4.909-3.957
		l3.478-3.478L194.878,313.371z M245.725,314.21l-4.622,3.882l-24.6-51.266l29.228-29.229L245.725,314.21z M281.247,190.768
		l-85.201,85.202c-0.002,0.002-0.003,0.003-0.005,0.005l-10.302,10.302c-3.555,3.555-8.257,5.878-13.24,6.543
		c-0.182,0.024-0.363,0.036-0.542,0.036c-1.122,0-2.196-0.493-2.948-1.352c-0.757-0.864-1.09-1.97-0.938-3.112
		c0.664-4.982,2.988-9.684,6.543-13.239l95.508-95.509c1.486-1.486,3.462-2.304,5.563-2.304c2.102,0,4.076,0.818,5.563,2.304
		c1.485,1.486,2.305,3.461,2.305,5.562S282.733,189.283,281.247,190.768z"/>
	<path d="M334.74,72.061c3.526-24.712-1.233-44.415-13.859-57.041c-10.244-10.243-24.75-15.296-43.274-15.009
		c-17.02,0.262-36.57,5.048-58.114,14.209c-6.769-0.739-13.616-1.127-20.524-1.127c-49.637,0-96.302,19.329-131.399,54.428
		c-41.397,41.397-59.129,97.627-53.221,151.741c-9.214,21.617-14.026,41.23-14.29,58.299c-0.285,18.471,4.764,33.031,15.008,43.275
		c9.928,9.927,24.227,15.005,41.905,15.005c4.798,0,9.859-0.396,15.135-1.149c34.533,32.321,79.331,50.055,126.862,50.055
		c49.637,0,96.302-19.33,131.399-54.427C401.329,259.358,402.779,144.818,334.74,72.061z M315.224,20.677
		c9.754,9.754,13.952,24.897,12.319,44.088c-25.874-24.825-57.699-41.324-92.21-48.134C271.148,3.975,299.833,5.287,315.224,20.677z
		 M20.721,315.179c-15.422-15.423-16.706-44.193-3.967-80.11c6.636,33.718,22.656,65.934,48.055,92.422
		C45.614,329.126,30.472,324.929,20.721,315.179z M324.711,324.663c-33.587,33.587-78.244,52.085-125.743,52.085
		c-43.455,0-84.526-15.491-116.924-43.846c19.281-4.231,40.979-12.989,63.301-25.596c1.924-1.086,2.602-3.526,1.516-5.45
		c-1.086-1.923-3.525-2.603-5.449-1.516c-23.849,13.469-46.831,22.365-66.639,25.833c-0.515-0.503-1.036-0.999-1.547-1.51
		c-69.335-69.335-69.335-182.151,0-251.486c33.587-33.587,78.244-52.084,125.743-52.084c47.499,0,92.156,18.497,125.743,52.084
		c0.511,0.511,1.007,1.033,1.511,1.55c-3.729,21.292-13.657,46.063-28.827,71.815c-1.121,1.903-0.487,4.355,1.416,5.477
		c0.638,0.376,1.337,0.554,2.026,0.554c1.37,0,2.705-0.705,3.45-1.97c14.285-24.248,24.091-47.773,28.657-68.601
		C393.915,151.774,391.179,258.195,324.711,324.663z"/>
</g>
<g>
</g>
<g>
</g>
<g>
</g>
<g>
</g>
<g>
</g>
<g>
</g>
<g>
</g>
<g>
</g>
<g>
</g>
<g>
</g>
<g>
</g>
<g>
</g>
<g>
</g>
<g>
</g>
<g>
</g>
</svg>
